<?xml version="1.0" encoding="UTF-8" standalone="no"?>
<svg
   xmlns:dc="http://purl.org/dc/elements/1.1/"
   xmlns:cc="http://web.resource.org/cc/"
   xmlns:rdf="http://www.w3.org/1999/02/22-rdf-syntax-ns#"
   xmlns:svg="http://www.w3.org/2000/svg"
   xmlns="http://www.w3.org/2000/svg"
   xmlns:xlink="http://www.w3.org/1999/xlink"
   xmlns:sodipodi="http://inkscape.sourceforge.net/DTD/sodipodi-0.dtd"
   xmlns:inkscape="http://www.inkscape.org/namespaces/inkscape"
   width="1000"
   height="1000"
   viewBox="0 0 1000 1000"
   id="svg2"
   sodipodi:version="0.32"
   inkscape:version="0.43"
   sodipodi:docname="Ceiling_function.svg"
   sodipodi:docbase="C:\Documents and Settings\Omegatron\My Documents\Wikipedia\Rounding functions">
  <metadata
     id="metadata305">
    <rdf:RDF>
      <cc:Work
         rdf:about="">
        <dc:format>image/svg+xml</dc:format>
        <dc:type
           rdf:resource="http://purl.org/dc/dcmitype/StillImage" />
      </cc:Work>
    </rdf:RDF>
  </metadata>
  <sodipodi:namedview
     inkscape:window-height="994"
     inkscape:window-width="1680"
     inkscape:pageshadow="2"
     inkscape:pageopacity="0.0"
     borderopacity="1.0"
     bordercolor="#666666"
     pagecolor="#ffffff"
     id="base"
     inkscape:zoom="0.74"
     inkscape:cx="580.8111"
     inkscape:cy="584.72934"
     inkscape:window-x="-4"
     inkscape:window-y="-4"
     inkscape:current-layer="svg2" />
  <desc
     id="desc4">Produced by GNUPLOT 4.0 patchlevel 0 </desc>
  <defs
     id="defs6">
    <circle
       id="gpDot"
       r="1" />
    <path
       id="gpPt0"
       style="stroke-width:0.074"
       d="M-1,0 h2 M0,-1 v2" />
    <path
       id="gpPt1"
       style="stroke-width:0.074"
       d="M-1,-1 L1,1 M1,-1 L-1,1" />
    <path
       id="gpPt2"
       style="stroke-width:0.074"
       d="M-1,0 L1,0 M0,-1 L0,1 M-1,-1 L1,1 M-1,1 L1,-1" />
    <rect
       id="gpPt3"
       style="stroke-width:0.074"
       x="-1"
       y="-1"
       width="2"
       height="2" />
    <use
       xlink:href="#gpPt3"
       id="gpPt4"
       style="fill:currentColor; stroke:none" />
    <circle
       id="gpPt5"
       style="stroke-width:0.074"
       cx="0"
       cy="0"
       r="1" />
    <use
       xlink:href="#gpPt5"
       id="gpPt6"
       style="fill:currentColor; stroke:none" />
    <path
       id="gpPt7"
       style="stroke-width:0.074"
       d="M0,-1.33 L-1.33,0.67 L1.33,0.67 z" />
    <use
       xlink:href="#gpPt7"
       id="gpPt8"
       style="fill:currentColor; stroke:none" />
    <use
       xlink:href="#gpPt7"
       id="gpPt9"
       transform="rotate(180)" />
    <use
       xlink:href="#gpPt9"
       id="gpPt10"
       style="fill:currentColor; stroke:none" />
    <use
       xlink:href="#gpPt3"
       id="gpPt11"
       transform="rotate(45)" />
    <use
       xlink:href="#gpPt11"
       id="gpPt12"
       style="fill:currentColor; stroke:none" />
  </defs>
  <g
     style="fill:none; color:black; stroke:currentColor; stroke-width:1.00"
     id="g22">
    <path
       d="M127,832 L154,832 M923,832 L896,832 "
       id="path24" />
    <g
       transform="translate(102,845)"
       style="stroke:none; fill:black; font-family:Times; font-size:36.00; text-anchor:end"
       id="g26">
      <text
         id="text28">
        <tspan
           id="tspan30">-3</tspan>
      </text>
    </g>
    <path
       d="M127,712 L154,712 M923,712 L896,712 "
       id="path32" />
    <g
       transform="translate(102,725)"
       style="stroke:none; fill:black; font-family:Times; font-size:36.00; text-anchor:end"
       id="g34">
      <text
         id="text36">
        <tspan
           id="tspan38">-2</tspan>
      </text>
    </g>
    <path
       d="M127,591 L154,591 M923,591 L896,591 "
       id="path40" />
    <g
       transform="translate(102,604)"
       style="stroke:none; fill:black; font-family:Times; font-size:36.00; text-anchor:end"
       id="g42">
      <text
         id="text44">
        <tspan
           id="tspan46">-1</tspan>
      </text>
    </g>
    <path
       d="M127,471 L154,471 M923,471 L896,471 "
       id="path48" />
    <g
       transform="translate(102,484)"
       style="stroke:none; fill:black; font-family:Times; font-size:36.00; text-anchor:end"
       id="g50">
      <text
         id="text52">
        <tspan
           id="tspan54"> 0</tspan>
      </text>
    </g>
    <path
       d="M127,351 L154,351 M923,351 L896,351 "
       id="path56" />
    <g
       transform="translate(102,364)"
       style="stroke:none; fill:black; font-family:Times; font-size:36.00; text-anchor:end"
       id="g58">
      <text
         id="text60">
        <tspan
           id="tspan62"> 1</tspan>
      </text>
    </g>
    <path
       d="M127,230 L154,230 M923,230 L896,230 "
       id="path64" />
    <g
       transform="translate(102,243)"
       style="stroke:none; fill:black; font-family:Times; font-size:36.00; text-anchor:end"
       id="g66">
      <text
         id="text68">
        <tspan
           id="tspan70"> 2</tspan>
      </text>
    </g>
    <path
       d="M127,110 L154,110 M923,110 L896,110 "
       id="path72" />
    <g
       transform="translate(102,123)"
       style="stroke:none; fill:black; font-family:Times; font-size:36.00; text-anchor:end"
       id="g74">
      <text
         id="text76">
        <tspan
           id="tspan78"> 3</tspan>
      </text>
    </g>
    <path
       d="M184,892 L184,865 M184,50 L184,77 "
       id="path80" />
    <g
       transform="translate(184,959)"
       style="stroke:none; fill:black; font-family:Times; font-size:36.00; text-anchor:middle"
       id="g82">
      <text
         id="text84">
        <tspan
           id="tspan86">-3</tspan>
      </text>
    </g>
    <path
       d="M298,892 L298,865 M298,50 L298,77 "
       id="path88" />
    <g
       transform="translate(298,959)"
       style="stroke:none; fill:black; font-family:Times; font-size:36.00; text-anchor:middle"
       id="g90">
      <text
         id="text92">
        <tspan
           id="tspan94">-2</tspan>
      </text>
    </g>
    <path
       d="M411,892 L411,865 M411,50 L411,77 "
       id="path96" />
    <g
       transform="translate(411,959)"
       style="stroke:none; fill:black; font-family:Times; font-size:36.00; text-anchor:middle"
       id="g98">
      <text
         id="text100">
        <tspan
           id="tspan102">-1</tspan>
      </text>
    </g>
    <path
       d="M525,892 L525,865 M525,50 L525,77 "
       id="path104" />
    <g
       transform="translate(525,959)"
       style="stroke:none; fill:black; font-family:Times; font-size:36.00; text-anchor:middle"
       id="g106">
      <text
         id="text108">
        <tspan
           id="tspan110"> 0</tspan>
      </text>
    </g>
    <path
       d="M639,892 L639,865 M639,50 L639,77 "
       id="path112" />
    <g
       transform="translate(639,959)"
       style="stroke:none; fill:black; font-family:Times; font-size:36.00; text-anchor:middle"
       id="g114">
      <text
         id="text116">
        <tspan
           id="tspan118"> 1</tspan>
      </text>
    </g>
    <path
       d="M752,892 L752,865 M752,50 L752,77 "
       id="path120" />
    <g
       transform="translate(752,959)"
       style="stroke:none; fill:black; font-family:Times; font-size:36.00; text-anchor:middle"
       id="g122">
      <text
         id="text124">
        <tspan
           id="tspan126"> 2</tspan>
      </text>
    </g>
    <path
       d="M866,892 L866,865 M866,50 L866,77 "
       id="path128" />
    <g
       transform="translate(866,959)"
       style="stroke:none; fill:black; font-family:Times; font-size:36.00; text-anchor:middle"
       id="g130">
      <text
         id="text132">
        <tspan
           id="tspan134"> 3</tspan>
      </text>
    </g>
  </g>
  <g
     style="fill:none; color:gray; stroke:currentColor; stroke-width:1.00"
     id="g136">
    <path
       d="M127,471 L923,471 M525,892 L525,50 "
       id="path138" />
  </g>
  <g
     style="fill:none; color:black; stroke:currentColor; stroke-width:1.00"
     id="g140">
    <path
       d="M127,892 L923,892 L923,50 L127,50 L127,892 "
       id="path142" />
  </g>
  <g
     style="fill:none; color:black; stroke:currentColor; stroke-width:1.00"
     id="g148">
    <path
       d="M127,892 L923,892 L923,50 L127,50 L127,892 "
       id="path150" />
  </g>
  <path
     d="M127,832 L154,832 M923,832 L896,832 "
     id="path152" />
  <g
     transform="translate(102,845)"
     style="stroke:none; fill:black; font-family:Times; font-size:36.00; text-anchor:end"
     id="g154">
    <text
       id="text156">
      <tspan
         id="tspan158">-3</tspan>
    </text>
  </g>
  <path
     d="M127,712 L154,712 M923,712 L896,712 "
     id="path160" />
  <g
     transform="translate(102,725)"
     style="stroke:none; fill:black; font-family:Times; font-size:36.00; text-anchor:end"
     id="g162">
    <text
       id="text164">
      <tspan
         id="tspan166">-2</tspan>
    </text>
  </g>
  <path
     d="M127,591 L154,591 M923,591 L896,591 "
     id="path168" />
  <g
     transform="translate(102,604)"
     style="stroke:none; fill:black; font-family:Times; font-size:36.00; text-anchor:end"
     id="g170">
    <text
       id="text172">
      <tspan
         id="tspan174">-1</tspan>
    </text>
  </g>
  <path
     d="M127,471 L154,471 M923,471 L896,471 "
     id="path176" />
  <g
     transform="translate(102,484)"
     style="stroke:none; fill:black; font-family:Times; font-size:36.00; text-anchor:end"
     id="g178">
    <text
       id="text180">
      <tspan
         id="tspan182"> 0</tspan>
    </text>
  </g>
  <path
     d="M127,351 L154,351 M923,351 L896,351 "
     id="path184" />
  <g
     transform="translate(102,364)"
     style="stroke:none; fill:black; font-family:Times; font-size:36.00; text-anchor:end"
     id="g186">
    <text
       id="text188">
      <tspan
         id="tspan190"> 1</tspan>
    </text>
  </g>
  <path
     d="M127,230 L154,230 M923,230 L896,230 "
     id="path192" />
  <g
     transform="translate(102,243)"
     style="stroke:none; fill:black; font-family:Times; font-size:36.00; text-anchor:end"
     id="g194">
    <text
       id="text196">
      <tspan
         id="tspan198"> 2</tspan>
    </text>
  </g>
  <path
     d="M127,110 L154,110 M923,110 L896,110 "
     id="path200" />
  <g
     transform="translate(102,123)"
     style="stroke:none; fill:black; font-family:Times; font-size:36.00; text-anchor:end"
     id="g202">
    <text
       id="text204">
      <tspan
         id="tspan206"> 3</tspan>
    </text>
  </g>
  <path
     d="M184,892 L184,865 M184,50 L184,77 "
     id="path208" />
  <g
     transform="translate(184,959)"
     style="stroke:none; fill:black; font-family:Times; font-size:36.00; text-anchor:middle"
     id="g210">
    <text
       id="text212">
      <tspan
         id="tspan214">-3</tspan>
    </text>
  </g>
  <path
     d="M298,892 L298,865 M298,50 L298,77 "
     id="path216" />
  <g
     transform="translate(298,959)"
     style="stroke:none; fill:black; font-family:Times; font-size:36.00; text-anchor:middle"
     id="g218">
    <text
       id="text220">
      <tspan
         id="tspan222">-2</tspan>
    </text>
  </g>
  <path
     d="M411,892 L411,865 M411,50 L411,77 "
     id="path224" />
  <g
     transform="translate(411,959)"
     style="stroke:none; fill:black; font-family:Times; font-size:36.00; text-anchor:middle"
     id="g226">
    <text
       id="text228">
      <tspan
         id="tspan230">-1</tspan>
    </text>
  </g>
  <path
     d="M525,892 L525,865 M525,50 L525,77 "
     id="path232" />
  <g
     transform="translate(525,959)"
     style="stroke:none; fill:black; font-family:Times; font-size:36.00; text-anchor:middle"
     id="g234">
    <text
       id="text236">
      <tspan
         id="tspan238"> 0</tspan>
    </text>
  </g>
  <path
     d="M639,892 L639,865 M639,50 L639,77 "
     id="path240" />
  <g
     transform="translate(639,959)"
     style="stroke:none; fill:black; font-family:Times; font-size:36.00; text-anchor:middle"
     id="g242">
    <text
       id="text244">
      <tspan
         id="tspan246"> 1</tspan>
    </text>
  </g>
  <path
     d="M752,892 L752,865 M752,50 L752,77 "
     id="path248" />
  <g
     transform="translate(752,959)"
     style="stroke:none; fill:black; font-family:Times; font-size:36.00; text-anchor:middle"
     id="g250">
    <text
       id="text252">
      <tspan
         id="tspan254"> 2</tspan>
    </text>
  </g>
  <path
     d="M866,892 L866,865 M866,50 L866,77 "
     id="path256" />
  <g
     transform="translate(866,959)"
     style="stroke:none; fill:black; font-family:Times; font-size:36.00; text-anchor:middle"
     id="g258">
    <text
       id="text260">
      <tspan
         id="tspan262"> 3</tspan>
    </text>
  </g>
  <g
     style="fill:none; color:gray; stroke:currentColor; stroke-width:1.00"
     id="g264">
    <path
       d="M127,471 L923,471 M525,892 L525,50 "
       id="path266" />
  </g>
  <g
     style="fill:none; color:black; stroke:currentColor; stroke-width:1.00"
     id="g268">
    <path
       d="M127,892 L923,892 L923,50 L127,50 L127,892 "
       id="path270" />
  </g>
  <g
     style="fill:none; color:black; stroke:currentColor; stroke-width:1.00"
     id="g300">
    <path
       d="M127,892 L923,892 L923,50 L127,50 L127,892 "
       id="path302" />
  </g>
  <g
     style="fill:none;color:red;stroke:#0000ff;stroke-width:1.00;stroke-opacity:1"
     id="g144">
    <path
       d="M127,832 L184,832 M184,712 L298,712 M298,591 L411,591 M411,471 L525,471 M525,351 L639,351    M639,230 L752,230 M752,110 L866,110 "
       id="path146"
       style="stroke:#0000ff;stroke-opacity:1" />
  </g>
  <g
     style="fill:none;color:red;stroke:#0000ff;stroke-width:1.00;stroke-opacity:1"
     id="g272">
    <use
       xlink:href="#gpPt5"
       transform="translate(184,832) scale(13.50)"
       id="use274"
       style="fill:#0000ff;fill-opacity:1;stroke:#0000ff;stroke-opacity:1" />
    <use
       xlink:href="#gpPt5"
       transform="translate(184,712) scale(13.50)"
       id="use276"
       style="fill:#ffffff;fill-opacity:1;stroke:#0000ff;stroke-opacity:1" />
    <use
       xlink:href="#gpPt5"
       transform="translate(298,712) scale(13.50)"
       id="use278"
       style="fill:#0000ff;fill-opacity:1;stroke:#0000ff;stroke-opacity:1" />
    <use
       xlink:href="#gpPt5"
       transform="translate(298,591) scale(13.50)"
       id="use280"
       style="fill:#ffffff;fill-opacity:1;stroke:#0000ff;stroke-opacity:1" />
    <use
       xlink:href="#gpPt5"
       transform="translate(411,591) scale(13.50)"
       id="use282"
       style="fill:#0000ff;fill-opacity:1;stroke:#0000ff;stroke-opacity:1" />
    <use
       xlink:href="#gpPt5"
       transform="translate(411,471) scale(13.50)"
       id="use284"
       style="fill:#ffffff;fill-opacity:1;stroke:#0000ff;stroke-opacity:1" />
    <use
       xlink:href="#gpPt5"
       transform="translate(525,471) scale(13.50)"
       id="use286"
       style="fill:#0000ff;fill-opacity:1;stroke:#0000ff;stroke-opacity:1" />
    <use
       xlink:href="#gpPt5"
       transform="translate(525,351) scale(13.50)"
       id="use288"
       style="fill:#ffffff;fill-opacity:1;stroke:#0000ff;stroke-opacity:1" />
    <use
       xlink:href="#gpPt5"
       transform="translate(639,351) scale(13.50)"
       id="use290"
       style="fill:#0000ff;fill-opacity:1;stroke:#0000ff;stroke-opacity:1" />
    <use
       xlink:href="#gpPt5"
       transform="translate(639,230) scale(13.50)"
       id="use292"
       style="fill:#ffffff;fill-opacity:1;stroke:#0000ff;stroke-opacity:1" />
    <use
       xlink:href="#gpPt5"
       transform="translate(752,230) scale(13.50)"
       id="use294"
       style="fill:#0000ff;fill-opacity:1;stroke:#0000ff;stroke-opacity:1" />
    <use
       xlink:href="#gpPt5"
       transform="translate(752,110) scale(13.50)"
       id="use296"
       style="fill:#ffffff;fill-opacity:1;stroke:#0000ff;stroke-opacity:1" />
    <use
       xlink:href="#gpPt5"
       transform="translate(866,110) scale(13.50)"
       id="use298"
       style="fill:#0000ff;fill-opacity:1;stroke:#0000ff;stroke-opacity:1" />
  </g>
</svg>
