<?xml version="1.0" encoding="UTF-8" standalone="no"?>
<svg
   xmlns:dc="http://purl.org/dc/elements/1.1/"
   xmlns:cc="http://web.resource.org/cc/"
   xmlns:rdf="http://www.w3.org/1999/02/22-rdf-syntax-ns#"
   xmlns:svg="http://www.w3.org/2000/svg"
   xmlns="http://www.w3.org/2000/svg"
   xmlns:xlink="http://www.w3.org/1999/xlink"
   xmlns:sodipodi="http://inkscape.sourceforge.net/DTD/sodipodi-0.dtd"
   xmlns:inkscape="http://www.inkscape.org/namespaces/inkscape"
   width="1000"
   height="1000"
   viewBox="0 0 1000 1000"
   id="svg1604"
   sodipodi:version="0.32"
   inkscape:version="0.43"
   sodipodi:docname="Int_function.svg"
   sodipodi:docbase="C:\Documents and Settings\Omegatron\My Documents\Wikipedia\Rounding functions">
  <metadata
     id="metadata1905">
    <rdf:RDF>
      <cc:Work
         rdf:about="">
        <dc:format>image/svg+xml</dc:format>
        <dc:type
           rdf:resource="http://purl.org/dc/dcmitype/StillImage" />
      </cc:Work>
    </rdf:RDF>
  </metadata>
  <sodipodi:namedview
     inkscape:window-height="578"
     inkscape:window-width="1021"
     inkscape:pageshadow="2"
     inkscape:pageopacity="0.0"
     borderopacity="1.0"
     bordercolor="#666666"
     pagecolor="#ffffff"
     id="base"
     inkscape:zoom="0.74"
     inkscape:cx="499.74367"
     inkscape:cy="258.16992"
     inkscape:window-x="461"
     inkscape:window-y="248"
     inkscape:current-layer="svg1604" />
  <desc
     id="desc1606">Produced by GNUPLOT 4.0 patchlevel 0 </desc>
  <defs
     id="defs1608">
    <circle
       id="gpDot"
       r="1" />
    <path
       id="gpPt0"
       style="stroke-width:0.074"
       d="M-1,0 h2 M0,-1 v2" />
    <path
       id="gpPt1"
       style="stroke-width:0.074"
       d="M-1,-1 L1,1 M1,-1 L-1,1" />
    <path
       id="gpPt2"
       style="stroke-width:0.074"
       d="M-1,0 L1,0 M0,-1 L0,1 M-1,-1 L1,1 M-1,1 L1,-1" />
    <rect
       id="gpPt3"
       style="stroke-width:0.074"
       x="-1"
       y="-1"
       width="2"
       height="2" />
    <use
       xlink:href="#gpPt3"
       id="gpPt4"
       style="fill:currentColor; stroke:none" />
    <circle
       id="gpPt5"
       style="stroke-width:0.074"
       cx="0"
       cy="0"
       r="1" />
    <use
       xlink:href="#gpPt5"
       id="gpPt6"
       style="fill:currentColor; stroke:none" />
    <path
       id="gpPt7"
       style="stroke-width:0.074"
       d="M0,-1.33 L-1.33,0.67 L1.33,0.67 z" />
    <use
       xlink:href="#gpPt7"
       id="gpPt8"
       style="fill:currentColor; stroke:none" />
    <use
       xlink:href="#gpPt7"
       id="gpPt9"
       transform="rotate(180)" />
    <use
       xlink:href="#gpPt9"
       id="gpPt10"
       style="fill:currentColor; stroke:none" />
    <use
       xlink:href="#gpPt3"
       id="gpPt11"
       transform="rotate(45)" />
    <use
       xlink:href="#gpPt11"
       id="gpPt12"
       style="fill:currentColor; stroke:none" />
  </defs>
  <g
     style="fill:none; color:black; stroke:currentColor; stroke-width:1.00"
     id="g1624">
    <path
       d="M127,832 L154,832 M923,832 L896,832 "
       id="path1626" />
    <g
       transform="translate(102,845)"
       style="stroke:none; fill:black; font-family:Times; font-size:36.00; text-anchor:end"
       id="g1628">
      <text
         id="text1630">
        <tspan
           id="tspan1632">-3</tspan>
      </text>
    </g>
    <path
       d="M127,712 L154,712 M923,712 L896,712 "
       id="path1634" />
    <g
       transform="translate(102,725)"
       style="stroke:none; fill:black; font-family:Times; font-size:36.00; text-anchor:end"
       id="g1636">
      <text
         id="text1638">
        <tspan
           id="tspan1640">-2</tspan>
      </text>
    </g>
    <path
       d="M127,591 L154,591 M923,591 L896,591 "
       id="path1642" />
    <g
       transform="translate(102,604)"
       style="stroke:none; fill:black; font-family:Times; font-size:36.00; text-anchor:end"
       id="g1644">
      <text
         id="text1646">
        <tspan
           id="tspan1648">-1</tspan>
      </text>
    </g>
    <path
       d="M127,471 L154,471 M923,471 L896,471 "
       id="path1650" />
    <g
       transform="translate(102,484)"
       style="stroke:none; fill:black; font-family:Times; font-size:36.00; text-anchor:end"
       id="g1652">
      <text
         id="text1654">
        <tspan
           id="tspan1656"> 0</tspan>
      </text>
    </g>
    <path
       d="M127,351 L154,351 M923,351 L896,351 "
       id="path1658" />
    <g
       transform="translate(102,364)"
       style="stroke:none; fill:black; font-family:Times; font-size:36.00; text-anchor:end"
       id="g1660">
      <text
         id="text1662">
        <tspan
           id="tspan1664"> 1</tspan>
      </text>
    </g>
    <path
       d="M127,230 L154,230 M923,230 L896,230 "
       id="path1666" />
    <g
       transform="translate(102,243)"
       style="stroke:none; fill:black; font-family:Times; font-size:36.00; text-anchor:end"
       id="g1668">
      <text
         id="text1670">
        <tspan
           id="tspan1672"> 2</tspan>
      </text>
    </g>
    <path
       d="M127,110 L154,110 M923,110 L896,110 "
       id="path1674" />
    <g
       transform="translate(102,123)"
       style="stroke:none; fill:black; font-family:Times; font-size:36.00; text-anchor:end"
       id="g1676">
      <text
         id="text1678">
        <tspan
           id="tspan1680"> 3</tspan>
      </text>
    </g>
    <path
       d="M184,892 L184,865 M184,50 L184,77 "
       id="path1682" />
    <g
       transform="translate(184,959)"
       style="stroke:none; fill:black; font-family:Times; font-size:36.00; text-anchor:middle"
       id="g1684">
      <text
         id="text1686">
        <tspan
           id="tspan1688">-3</tspan>
      </text>
    </g>
    <path
       d="M298,892 L298,865 M298,50 L298,77 "
       id="path1690" />
    <g
       transform="translate(298,959)"
       style="stroke:none; fill:black; font-family:Times; font-size:36.00; text-anchor:middle"
       id="g1692">
      <text
         id="text1694">
        <tspan
           id="tspan1696">-2</tspan>
      </text>
    </g>
    <path
       d="M411,892 L411,865 M411,50 L411,77 "
       id="path1698" />
    <g
       transform="translate(411,959)"
       style="stroke:none; fill:black; font-family:Times; font-size:36.00; text-anchor:middle"
       id="g1700">
      <text
         id="text1702">
        <tspan
           id="tspan1704">-1</tspan>
      </text>
    </g>
    <path
       d="M525,892 L525,865 M525,50 L525,77 "
       id="path1706" />
    <g
       transform="translate(525,959)"
       style="stroke:none; fill:black; font-family:Times; font-size:36.00; text-anchor:middle"
       id="g1708">
      <text
         id="text1710">
        <tspan
           id="tspan1712"> 0</tspan>
      </text>
    </g>
    <path
       d="M639,892 L639,865 M639,50 L639,77 "
       id="path1714" />
    <g
       transform="translate(639,959)"
       style="stroke:none; fill:black; font-family:Times; font-size:36.00; text-anchor:middle"
       id="g1716">
      <text
         id="text1718">
        <tspan
           id="tspan1720"> 1</tspan>
      </text>
    </g>
    <path
       d="M752,892 L752,865 M752,50 L752,77 "
       id="path1722" />
    <g
       transform="translate(752,959)"
       style="stroke:none; fill:black; font-family:Times; font-size:36.00; text-anchor:middle"
       id="g1724">
      <text
         id="text1726">
        <tspan
           id="tspan1728"> 2</tspan>
      </text>
    </g>
    <path
       d="M866,892 L866,865 M866,50 L866,77 "
       id="path1730" />
    <g
       transform="translate(866,959)"
       style="stroke:none; fill:black; font-family:Times; font-size:36.00; text-anchor:middle"
       id="g1732">
      <text
         id="text1734">
        <tspan
           id="tspan1736"> 3</tspan>
      </text>
    </g>
  </g>
  <g
     style="fill:none; color:gray; stroke:currentColor; stroke-width:1.00"
     id="g1738">
    <path
       d="M127,471 L923,471 M525,892 L525,50 "
       id="path1740" />
  </g>
  <g
     style="fill:none; color:black; stroke:currentColor; stroke-width:1.00"
     id="g1742">
    <path
       d="M127,892 L923,892 L923,50 L127,50 L127,892 "
       id="path1744" />
  </g>
  <g
     style="fill:none; color:black; stroke:currentColor; stroke-width:1.00"
     id="g1750">
    <path
       d="M127,892 L923,892 L923,50 L127,50 L127,892 "
       id="path1752" />
  </g>
  <path
     d="M127,832 L154,832 M923,832 L896,832 "
     id="path1754" />
  <g
     transform="translate(102,845)"
     style="stroke:none; fill:black; font-family:Times; font-size:36.00; text-anchor:end"
     id="g1756">
    <text
       id="text1758">
      <tspan
         id="tspan1760">-3</tspan>
    </text>
  </g>
  <path
     d="M127,712 L154,712 M923,712 L896,712 "
     id="path1762" />
  <g
     transform="translate(102,725)"
     style="stroke:none; fill:black; font-family:Times; font-size:36.00; text-anchor:end"
     id="g1764">
    <text
       id="text1766">
      <tspan
         id="tspan1768">-2</tspan>
    </text>
  </g>
  <path
     d="M127,591 L154,591 M923,591 L896,591 "
     id="path1770" />
  <g
     transform="translate(102,604)"
     style="stroke:none; fill:black; font-family:Times; font-size:36.00; text-anchor:end"
     id="g1772">
    <text
       id="text1774">
      <tspan
         id="tspan1776">-1</tspan>
    </text>
  </g>
  <path
     d="M127,471 L154,471 M923,471 L896,471 "
     id="path1778" />
  <g
     transform="translate(102,484)"
     style="stroke:none; fill:black; font-family:Times; font-size:36.00; text-anchor:end"
     id="g1780">
    <text
       id="text1782">
      <tspan
         id="tspan1784"> 0</tspan>
    </text>
  </g>
  <path
     d="M127,351 L154,351 M923,351 L896,351 "
     id="path1786" />
  <g
     transform="translate(102,364)"
     style="stroke:none; fill:black; font-family:Times; font-size:36.00; text-anchor:end"
     id="g1788">
    <text
       id="text1790">
      <tspan
         id="tspan1792"> 1</tspan>
    </text>
  </g>
  <path
     d="M127,230 L154,230 M923,230 L896,230 "
     id="path1794" />
  <g
     transform="translate(102,243)"
     style="stroke:none; fill:black; font-family:Times; font-size:36.00; text-anchor:end"
     id="g1796">
    <text
       id="text1798">
      <tspan
         id="tspan1800"> 2</tspan>
    </text>
  </g>
  <path
     d="M127,110 L154,110 M923,110 L896,110 "
     id="path1802" />
  <g
     transform="translate(102,123)"
     style="stroke:none; fill:black; font-family:Times; font-size:36.00; text-anchor:end"
     id="g1804">
    <text
       id="text1806">
      <tspan
         id="tspan1808"> 3</tspan>
    </text>
  </g>
  <path
     d="M184,892 L184,865 M184,50 L184,77 "
     id="path1810" />
  <g
     transform="translate(184,959)"
     style="stroke:none; fill:black; font-family:Times; font-size:36.00; text-anchor:middle"
     id="g1812">
    <text
       id="text1814">
      <tspan
         id="tspan1816">-3</tspan>
    </text>
  </g>
  <path
     d="M298,892 L298,865 M298,50 L298,77 "
     id="path1818" />
  <g
     transform="translate(298,959)"
     style="stroke:none; fill:black; font-family:Times; font-size:36.00; text-anchor:middle"
     id="g1820">
    <text
       id="text1822">
      <tspan
         id="tspan1824">-2</tspan>
    </text>
  </g>
  <path
     d="M411,892 L411,865 M411,50 L411,77 "
     id="path1826" />
  <g
     transform="translate(411,959)"
     style="stroke:none; fill:black; font-family:Times; font-size:36.00; text-anchor:middle"
     id="g1828">
    <text
       id="text1830">
      <tspan
         id="tspan1832">-1</tspan>
    </text>
  </g>
  <path
     d="M525,892 L525,865 M525,50 L525,77 "
     id="path1834" />
  <g
     transform="translate(525,959)"
     style="stroke:none; fill:black; font-family:Times; font-size:36.00; text-anchor:middle"
     id="g1836">
    <text
       id="text1838">
      <tspan
         id="tspan1840"> 0</tspan>
    </text>
  </g>
  <path
     d="M639,892 L639,865 M639,50 L639,77 "
     id="path1842" />
  <g
     transform="translate(639,959)"
     style="stroke:none; fill:black; font-family:Times; font-size:36.00; text-anchor:middle"
     id="g1844">
    <text
       id="text1846">
      <tspan
         id="tspan1848"> 1</tspan>
    </text>
  </g>
  <path
     d="M752,892 L752,865 M752,50 L752,77 "
     id="path1850" />
  <g
     transform="translate(752,959)"
     style="stroke:none; fill:black; font-family:Times; font-size:36.00; text-anchor:middle"
     id="g1852">
    <text
       id="text1854">
      <tspan
         id="tspan1856"> 2</tspan>
    </text>
  </g>
  <path
     d="M866,892 L866,865 M866,50 L866,77 "
     id="path1858" />
  <g
     transform="translate(866,959)"
     style="stroke:none; fill:black; font-family:Times; font-size:36.00; text-anchor:middle"
     id="g1860">
    <text
       id="text1862">
      <tspan
         id="tspan1864"> 3</tspan>
    </text>
  </g>
  <g
     style="fill:none; color:gray; stroke:currentColor; stroke-width:1.00"
     id="g1866">
    <path
       d="M127,471 L923,471 M525,892 L525,50 "
       id="path1868" />
  </g>
  <g
     style="fill:none; color:black; stroke:currentColor; stroke-width:1.00"
     id="g1870">
    <path
       d="M127,892 L923,892 L923,50 L127,50 L127,892 "
       id="path1872" />
  </g>
  <g
     style="fill:none; color:black; stroke:currentColor; stroke-width:1.00"
     id="g1900">
    <path
       d="M127,892 L923,892 L923,50 L127,50 L127,892 "
       id="path1902" />
  </g>
  <g
     style="fill:none;color:red;stroke:#0000ff;stroke-width:1.00;stroke-opacity:1"
     id="g1746">
    <path
       d="M127,832 L184,832 M184,712 L298,712 M298,591 L411,591 M411,471 L639,471 M639,351 L752,351    M752,230 L866,230 M866,110 L923,110 "
       id="path1748"
       style="stroke:#0000ff;stroke-opacity:1" />
  </g>
  <g
     style="fill:none;color:red;stroke:#0000ff;stroke-width:1.00;stroke-opacity:1"
     id="g1874">
    <use
       xlink:href="#gpPt5"
       transform="translate(184,832) scale(13.50)"
       id="use1876"
       style="fill:#0000ff;fill-opacity:1;stroke:#0000ff;stroke-opacity:1" />
    <use
       xlink:href="#gpPt5"
       transform="translate(184,712) scale(13.50)"
       id="use1878"
       style="fill:#ffffff;fill-opacity:1;stroke:#0000ff;stroke-opacity:1" />
    <use
       xlink:href="#gpPt5"
       transform="translate(298,712) scale(13.50)"
       id="use1880"
       style="fill:#0000ff;fill-opacity:1;stroke:#0000ff;stroke-opacity:1" />
    <use
       xlink:href="#gpPt5"
       transform="translate(298,591) scale(13.50)"
       id="use1882"
       style="fill:#ffffff;fill-opacity:1;stroke:#0000ff;stroke-opacity:1" />
    <use
       xlink:href="#gpPt5"
       transform="translate(411,591) scale(13.50)"
       id="use1884"
       style="fill:#0000ff;fill-opacity:1;stroke:#0000ff;stroke-opacity:1" />
    <use
       xlink:href="#gpPt5"
       transform="translate(411,471) scale(13.50)"
       id="use1886"
       style="fill:#ffffff;fill-opacity:1;stroke:#0000ff;stroke-opacity:1" />
    <use
       xlink:href="#gpPt5"
       transform="translate(639,471) scale(13.50)"
       id="use1888"
       style="fill:#ffffff;fill-opacity:1;stroke:#0000ff;stroke-opacity:1" />
    <use
       xlink:href="#gpPt5"
       transform="translate(639,351) scale(13.50)"
       id="use1890"
       style="fill:#0000ff;fill-opacity:1;stroke:#0000ff;stroke-opacity:1" />
    <use
       xlink:href="#gpPt5"
       transform="translate(752,351) scale(13.50)"
       id="use1892"
       style="fill:#ffffff;fill-opacity:1;stroke:#0000ff;stroke-opacity:1" />
    <use
       xlink:href="#gpPt5"
       transform="translate(752,230) scale(13.50)"
       id="use1894"
       style="fill:#0000ff;fill-opacity:1;stroke:#0000ff;stroke-opacity:1" />
    <use
       xlink:href="#gpPt5"
       transform="translate(866,230) scale(13.50)"
       id="use1896"
       style="fill:#ffffff;fill-opacity:1;stroke:#0000ff;stroke-opacity:1" />
    <use
       xlink:href="#gpPt5"
       transform="translate(866,110) scale(13.50)"
       id="use1898"
       style="fill:#0000ff;fill-opacity:1;stroke:#0000ff;stroke-opacity:1" />
  </g>
</svg>
